<svg width="139" height="150" viewBox="0 0 139 150" fill="none" xmlns="http://www.w3.org/2000/svg">
<path d="M67.6453 1.77796C67.9062 -0.592654 71.0938 -0.592654 71.3547 1.77796L73.5414 21.6653C76.365 47.3452 95.1268 67.5918 118.923 70.6388L137.352 72.9985C139.549 73.28 139.549 76.72 137.352 77.0015L118.923 79.3612C95.1268 82.4082 76.365 102.655 73.5414 128.335L71.3547 148.222C71.0938 150.593 67.9062 150.593 67.6453 148.222L65.4586 128.335C62.6351 102.655 43.8732 82.4082 20.0765 79.3612L1.64758 77.0015C-0.549193 76.72 -0.549193 73.28 1.64758 72.9985L20.0765 70.6388C43.8732 67.5918 62.6351 47.3452 65.4586 21.6653L67.6453 1.77796Z" fill="#333333"/>
</svg>
